<svg xmlns="http://www.w3.org/2000/svg" width="1138" height="1138" viewBox="0 0 388.861 381.2">
  <g id="attach" transform="translate(0 -5.044)">
    <path id="Path_4605" data-name="Path 4605" d="M51.254,344.972V84.721A36.084,36.084,0,0,1,87.338,48.638H342.323a36.079,36.079,0,0,0-35.989-33.595H68.038A58.038,58.038,0,0,0,10,73.082v238.3a36.084,36.084,0,0,0,36.084,36.084h5.265c-.055-.823-.094-1.652-.094-2.489Z" transform="translate(-2.405 -2.405)" fill="#fff3f2"/>
    <g id="Group_11899" data-name="Group 11899" transform="translate(48.849 46.233)">
      <path id="Path_4606" data-name="Path 4606" d="M491.9,477.1a36.381,36.381,0,0,1-3.818,4.514A36.265,36.265,0,0,0,491.9,477.1Z" transform="translate(-166.236 -159.765)" fill="#fff"/>
      <path id="Path_4607" data-name="Path 4607" d="M103.477,496.183a35.935,35.935,0,0,1-3.523-.72A35.767,35.767,0,0,0,103.477,496.183Z" transform="translate(-72.889 -164.181)" fill="#fff"/>
      <path id="Path_4608" data-name="Path 4608" d="M501.425,449.449h0a36.017,36.017,0,0,1-1.814,11.3A36.017,36.017,0,0,0,501.425,449.449Z" transform="translate(-169.008 -153.115)" fill="#fff"/>
      <path id="Path_4609" data-name="Path 4609" d="M98.362,494.925a35.794,35.794,0,0,1-5.028-1.7A35.794,35.794,0,0,0,98.362,494.925Z" transform="translate(-71.296 -163.643)" fill="#fff"/>
      <path id="Path_4610" data-name="Path 4610" d="M76.838,481.352a36.256,36.256,0,0,1-4.406-5.34A36.169,36.169,0,0,0,76.838,481.352Z" transform="translate(-66.269 -159.503)" fill="#fff"/>
      <path id="Path_4611" data-name="Path 4611" d="M90.946,491.853A36.051,36.051,0,0,1,83.4,487.52,36,36,0,0,0,90.946,491.853Z" transform="translate(-68.908 -162.271)" fill="#fff"/>
      <path id="Path_4612" data-name="Path 4612" d="M480.445,488.071a36.055,36.055,0,0,1-5.357,3.192A36.123,36.123,0,0,0,480.445,488.071Z" transform="translate(-163.11 -162.403)" fill="#fff"/>
      <path id="Path_4613" data-name="Path 4613" d="M110.66,496.9h0a36.573,36.573,0,0,1-3.69-.186A36.562,36.562,0,0,0,110.66,496.9Z" transform="translate(-74.576 -164.482)" fill="#fff"/>
      <path id="Path_4614" data-name="Path 4614" d="M498.163,467.091q-.623,1.559-1.385,3.041Q497.538,468.65,498.163,467.091Z" transform="translate(-168.327 -157.358)" fill="#fff"/>
      <path id="Path_4615" data-name="Path 4615" d="M471.47,493.466c-.933.38-1.882.729-2.852,1.031C469.588,494.194,470.536,493.845,471.47,493.466Z" transform="translate(-161.554 -163.701)" fill="#fff"/>
      <path id="Path_4616" data-name="Path 4616" d="M360.652,59.276H100.4A36.084,36.084,0,0,0,64.318,95.36V313.245L152.5,163.719a21.909,21.909,0,0,1,38.113.652l61.48,112.89a23.862,23.862,0,0,0,36.191,6.953l34.155-28.334a21.91,21.91,0,0,1,28.793.712l45.5,41.707V95.36A36.084,36.084,0,0,0,360.652,59.276ZM303.985,184.487a31.547,31.547,0,1,1,31.547-31.547A31.547,31.547,0,0,1,303.985,184.487Z" transform="translate(-64.318 -59.276)" fill="#fff"/>
      <path id="Path_4617" data-name="Path 4617" d="M64.318,449.449h0c0,.838.039,1.666.095,2.489a35.88,35.88,0,0,0,6.068,17.686A35.916,35.916,0,0,1,64.318,449.449Z" transform="translate(-64.318 -153.115)" fill="#fff"/>
    </g>
    <path id="Path_4618" data-name="Path 4618" d="M351.235,286.252a21.91,21.91,0,0,0-28.793-.712l-34.155,28.334A23.862,23.862,0,0,1,252.1,306.92l-61.48-112.89a21.909,21.909,0,0,0-38.113-.652L64.318,342.9V385.27a36.035,36.035,0,0,0,30.589,35.667q.9.137,1.806.229a36.561,36.561,0,0,0,3.69.186H360.652q.934,0,1.857-.047a36.18,36.18,0,0,0,5.415-.686q1.761-.36,3.458-.889c.97-.3,1.918-.651,2.852-1.031.7-.283,1.388-.58,2.062-.905a36.27,36.27,0,0,0,16.473-16.085q.761-1.483,1.385-3.041.415-1.036.767-2.1a36.039,36.039,0,0,0,1.814-11.3V327.96Z" transform="translate(-15.469 -42.703)" fill="#edf8ff"/>
    <circle id="Ellipse_78" data-name="Ellipse 78" cx="31.547" cy="31.547" r="31.547" transform="translate(256.97 108.35)" fill="#fff3f2"/>
    <path id="Path_4619" data-name="Path 4619" d="M367.484,209.347a39.142,39.142,0,1,0-39.142-39.142A39.187,39.187,0,0,0,367.484,209.347Zm0-63.094a23.952,23.952,0,1,1-23.952,23.952A23.979,23.979,0,0,1,367.484,146.253Z" transform="translate(-78.968 -30.308)" fill="#dcdfe5"/>
    <path id="Path_4620" data-name="Path 4620" d="M375.605,449.7a7.5,7.5,0,0,0-.7-1.314,7.38,7.38,0,0,0-2.1-2.1,7.49,7.49,0,0,0-1.314-.7,7.132,7.132,0,0,0-1.42-.433,7.478,7.478,0,0,0-2.962,0,7.132,7.132,0,0,0-1.42.433,7.491,7.491,0,0,0-1.314.7,7.381,7.381,0,0,0-2.1,2.1,7.493,7.493,0,0,0-.7,1.314,7.132,7.132,0,0,0-.433,1.42,7.3,7.3,0,0,0,0,2.962,7.131,7.131,0,0,0,.433,1.42,7.493,7.493,0,0,0,.7,1.314,7.268,7.268,0,0,0,.942,1.154c.174.174.358.34.549.5a7.071,7.071,0,0,0,.605.444,7.5,7.5,0,0,0,1.314.7,7.133,7.133,0,0,0,1.42.433,7.3,7.3,0,0,0,2.962,0,7.131,7.131,0,0,0,1.42-.433,7.5,7.5,0,0,0,1.314-.7,7.254,7.254,0,0,0,.605-.444q.288-.236.549-.5a7.268,7.268,0,0,0,.942-1.154,7.5,7.5,0,0,0,.7-1.314,7.692,7.692,0,0,0,.44-1.42,7.673,7.673,0,0,0,0-2.962A7.693,7.693,0,0,0,375.605,449.7Z" transform="translate(-86.822 -105.813)" fill="#dcdfe5"/>
    <path id="Path_4621" data-name="Path 4621" d="M204.2,59.776a8.035,8.035,0,0,0,.691,1.314,8.165,8.165,0,0,0,.949,1.154,7.27,7.27,0,0,0,1.154.942,7.7,7.7,0,0,0,1.306.7,7.925,7.925,0,0,0,1.428.433,7.3,7.3,0,0,0,2.962,0,7.669,7.669,0,0,0,1.42-.433,7.5,7.5,0,0,0,1.314-.7,7.268,7.268,0,0,0,1.154-.942,7.626,7.626,0,0,0,.942-1.154,8.078,8.078,0,0,0,.7-1.314,7.136,7.136,0,0,0,.433-1.42,7.334,7.334,0,0,0,0-2.97,7.136,7.136,0,0,0-.433-1.42,8.078,8.078,0,0,0-.7-1.314,7.625,7.625,0,0,0-.942-1.154,7.268,7.268,0,0,0-1.154-.942,7.5,7.5,0,0,0-1.314-.7,7.669,7.669,0,0,0-1.42-.433,7.479,7.479,0,0,0-2.962,0,7.926,7.926,0,0,0-1.428.433,7.7,7.7,0,0,0-1.306.7,7.27,7.27,0,0,0-1.154.942,8.165,8.165,0,0,0-.949,1.154,8.035,8.035,0,0,0-.691,1.314,7.134,7.134,0,0,0-.433,1.42,7.334,7.334,0,0,0,0,2.97A7.134,7.134,0,0,0,204.2,59.776Z" transform="translate(-48.972 -10.638)" fill="#dcdfe5"/>
    <path id="Path_4622" data-name="Path 4622" d="M346.427,38.67a43.746,43.746,0,0,0-42.5-33.626H65.633A65.707,65.707,0,0,0,0,70.677v238.3a43.722,43.722,0,0,0,42.434,43.647,43.746,43.746,0,0,0,42.5,33.626h260.25a43.728,43.728,0,0,0,43.679-43.679V82.317A43.722,43.722,0,0,0,346.427,38.67Zm27.245,303.9a28.521,28.521,0,0,1-28.489,28.489H84.933a28.5,28.5,0,0,1-28.489-28.489V302.275l87.133-147.74a14.314,14.314,0,0,1,24.9.426l37.516,68.888,54.532,100.134a7.6,7.6,0,0,0,13.341-7.265l-17.7-32.495a31.327,31.327,0,0,0,21.5-7.206l34.155-28.334a14.369,14.369,0,0,1,18.812.466l1.783,1.634,15.19,13.924L373.671,288.6Zm0-74.576L347.608,244.1l-15.19-11.566a29.636,29.636,0,0,0-30.293,4.458l-34.155,28.334a16.267,16.267,0,0,1-24.672-4.74l-23.964-44-13.381-24.57h0L181.818,147.7a29.5,29.5,0,0,0-51.325-.877L56.443,272.373V82.317A28.521,28.521,0,0,1,84.932,53.828h46.931a7.595,7.595,0,0,0,0-15.19H84.932A43.728,43.728,0,0,0,41.253,82.317V337.35A28.521,28.521,0,0,1,15.19,308.973V70.677A50.5,50.5,0,0,1,65.633,20.233h238.3a28.531,28.531,0,0,1,26.639,18.4H192.622a7.595,7.595,0,1,0,0,15.19H332.417l15.19.111a28.521,28.521,0,0,1,26.064,28.378Z" fill="#dcdfe5"/>
  </g>
</svg>
