<svg xmlns="http://www.w3.org/2000/svg" width="419.083" height="383.336" viewBox="0 0 419.083 383.336">
  <g id="Group_11936" data-name="Group 11936" transform="translate(-170.754 -1925.731)">
    <g id="Group_11929" data-name="Group 11929" transform="translate(228.646 1931.435)">
      <path id="Path_4662" data-name="Path 4662" d="M189.577,458.667a53.249,53.249,0,0,0,49.731,34.226h0a53.25,53.25,0,0,0,49.731-34.226Z" transform="translate(-189.577 -120.966)" fill="#fff1d4"/>
      <path id="Path_4663" data-name="Path 4663" d="M289.039,41.845A53.25,53.25,0,0,0,239.308,7.619h0a53.25,53.25,0,0,0-49.731,34.226Z" transform="translate(-189.577 -7.619)" fill="#fff1d4"/>
    </g>
    <g id="Group_11934" data-name="Group 11934" transform="translate(432.482 1931.435)">
      <path id="Path_4662-2" data-name="Path 4662" d="M189.577,458.667a53.249,53.249,0,0,0,49.731,34.226h0a53.25,53.25,0,0,0,49.731-34.226Z" transform="translate(-189.577 -120.966)" fill="#fff1d4"/>
      <path id="Path_4663-2" data-name="Path 4663" d="M289.039,41.845A53.25,53.25,0,0,0,239.308,7.619h0a53.25,53.25,0,0,0-49.731,34.226Z" transform="translate(-189.577 -7.619)" fill="#fff1d4"/>
    </g>
    <g id="Group_11930" data-name="Group 11930" transform="translate(209.924 1965.661)">
      <rect id="Rectangle_15348" data-name="Rectangle 15348" width="136.906" height="22.817" fill="#fff"/>
      <rect id="Rectangle_15349" data-name="Rectangle 15349" width="136.906" height="22.817" transform="translate(0 280.656)" fill="#fff"/>
    </g>
    <g id="Group_11935" data-name="Group 11935" transform="translate(413.761 1965.661)">
      <rect id="Rectangle_15348-2" data-name="Rectangle 15348" width="136.906" height="22.817" fill="#fff"/>
      <rect id="Rectangle_15349-2" data-name="Rectangle 15349" width="136.906" height="22.817" transform="translate(0 280.656)" fill="#fff"/>
    </g>
    <path id="Path_4664" data-name="Path 4664" d="M291.371,289.96a38.029,38.029,0,0,1-25.239,35.813l-56.005,20a38.029,38.029,0,0,0-25.239,35.813v-39.73a38.029,38.029,0,0,1,25.239-35.813l56.005-20a38.03,38.03,0,0,0,25.239-35.813Z" transform="translate(40.247 1862.849)" fill="#fff"/>
    <path id="Path_4673" data-name="Path 4673" d="M291.371,289.96a38.029,38.029,0,0,1-25.239,35.813l-56.005,20a38.029,38.029,0,0,0-25.239,35.813v-39.73a38.029,38.029,0,0,1,25.239-35.813l56.005-20a38.03,38.03,0,0,0,25.239-35.813Z" transform="translate(244.084 1862.849)" fill="#fff"/>
    <path id="Path_4665" data-name="Path 4665" d="M291.371,236.895a38.029,38.029,0,0,1-25.239,35.813l-56.005,20a38.029,38.029,0,0,0-25.239,35.813v-39.73a38.029,38.029,0,0,1,25.239-35.813l56.005-20a38.029,38.029,0,0,0,25.239-35.813Z" transform="translate(40.247 1876.184)" fill="#edf8ff"/>
    <path id="Path_4674" data-name="Path 4674" d="M291.371,236.895a38.029,38.029,0,0,1-25.239,35.813l-56.005,20a38.029,38.029,0,0,0-25.239,35.813v-39.73a38.029,38.029,0,0,1,25.239-35.813l56.005-20a38.029,38.029,0,0,0,25.239-35.813Z" transform="translate(244.084 1876.184)" fill="#edf8ff"/>
    <path id="Path_4666" data-name="Path 4666" d="M291.371,183.83a38.029,38.029,0,0,1-25.239,35.813l-56.005,20a38.029,38.029,0,0,0-25.239,35.813v-39.73a38.029,38.029,0,0,1,25.239-35.813l56.005-20A38.029,38.029,0,0,0,291.371,144.1Z" transform="translate(40.247 1889.519)" fill="#fff"/>
    <path id="Path_4675" data-name="Path 4675" d="M291.371,183.83a38.029,38.029,0,0,1-25.239,35.813l-56.005,20a38.029,38.029,0,0,0-25.239,35.813v-39.73a38.029,38.029,0,0,1,25.239-35.813l56.005-20A38.029,38.029,0,0,0,291.371,144.1Z" transform="translate(244.084 1889.519)" fill="#fff"/>
    <path id="Path_4667" data-name="Path 4667" d="M291.371,130.765a38.029,38.029,0,0,1-25.239,35.813l-56.005,20a38.03,38.03,0,0,0-25.239,35.813v-39.73a38.029,38.029,0,0,1,25.239-35.813l56.005-20a38.029,38.029,0,0,0,25.239-35.813Z" transform="translate(40.247 1902.854)" fill="#fff3f2"/>
    <path id="Path_4676" data-name="Path 4676" d="M291.371,130.765a38.029,38.029,0,0,1-25.239,35.813l-56.005,20a38.03,38.03,0,0,0-25.239,35.813v-39.73a38.029,38.029,0,0,1,25.239-35.813l56.005-20a38.029,38.029,0,0,0,25.239-35.813Z" transform="translate(244.084 1902.854)" fill="#fff3f2"/>
    <path id="Path_4668" data-name="Path 4668" d="M210.128,105.3l56.005-20a38.28,38.28,0,0,0,3.577-1.493H184.889v57.309A38.03,38.03,0,0,1,210.128,105.3Z" transform="translate(40.247 1904.669)" fill="#edf8ff"/>
    <path id="Path_4681" data-name="Path 4681" d="M210.128,105.3l56.005-20a38.28,38.28,0,0,0,3.577-1.493H184.889v57.309A38.03,38.03,0,0,1,210.128,105.3Z" transform="translate(244.084 1904.669)" fill="#edf8ff"/>
    <path id="Path_4669" data-name="Path 4669" d="M266.132,85.3l-56.005,20a38.029,38.029,0,0,0-25.239,35.813v39.73a38.029,38.029,0,0,1,25.239-35.813l56.005-20a38.029,38.029,0,0,0,25.239-35.813V83.81H269.708A38.16,38.16,0,0,1,266.132,85.3Z" transform="translate(40.247 1904.669)" fill="#fff"/>
    <path id="Path_4677" data-name="Path 4677" d="M266.132,85.3l-56.005,20a38.029,38.029,0,0,0-25.239,35.813v39.73a38.029,38.029,0,0,1,25.239-35.813l56.005-20a38.029,38.029,0,0,0,25.239-35.813V83.81H269.708A38.16,38.16,0,0,1,266.132,85.3Z" transform="translate(244.084 1904.669)" fill="#fff"/>
    <path id="Path_4670" data-name="Path 4670" d="M266.132,339.108l-56.005,20a38.029,38.029,0,0,0-25.239,35.813v1.88h30.939l50.3-17.966a38.029,38.029,0,0,0,25.239-35.813v-39.73A38.027,38.027,0,0,1,266.132,339.108Z" transform="translate(40.247 1849.514)" fill="#fff3f2"/>
    <path id="Path_4678" data-name="Path 4678" d="M266.132,339.108l-56.005,20a38.029,38.029,0,0,0-25.239,35.813v1.88h30.939l50.3-17.966a38.029,38.029,0,0,0,25.239-35.813v-39.73A38.027,38.027,0,0,1,266.132,339.108Z" transform="translate(244.084 1849.514)" fill="#fff3f2"/>
    <path id="Path_4671" data-name="Path 4671" d="M276.517,392.174l-50.3,17.966h75.543V356.361A38.03,38.03,0,0,1,276.517,392.174Z" transform="translate(29.862 1836.178)" fill="#fff"/>
    <path id="Path_4679" data-name="Path 4679" d="M276.517,392.174l-50.3,17.966h75.543V356.361A38.03,38.03,0,0,1,276.517,392.174Z" transform="translate(233.699 1836.178)" fill="#fff"/>
    <path id="Path_4672" data-name="Path 4672" d="M231.109,0a59.324,59.324,0,0,0-53.5,34.226H156.952V68.452h15.211V314.882H156.952v34.226h20.656a58.929,58.929,0,0,0,107,0h20.656V314.883H290.055V68.453h15.211V34.226H284.61A59.322,59.322,0,0,0,231.109,0Zm0,11.409A47.869,47.869,0,0,1,271.7,34.226H190.52A47.87,47.87,0,0,1,231.109,11.409ZM183.573,68.453h46.786l-29.17,10.417a43.6,43.6,0,0,0-17.616,11.766V68.453Zm21.453,21.162,56-20c.6-.215,1.211-.454,1.822-.706.173-.07.344-.144.517-.218.189-.08.377-.154.565-.238h14.707c0,.162-.005.323-.01.485-.005.213-.009.425-.018.637s-.025.422-.037.633-.025.416-.043.624-.041.425-.063.636-.04.406-.065.609-.058.43-.089.644c-.028.2-.055.393-.086.588-.035.218-.076.433-.115.649-.035.191-.068.383-.106.573-.044.218-.094.434-.142.651-.042.186-.082.373-.127.558-.052.218-.111.434-.168.65-.048.182-.094.365-.145.545-.061.216-.129.431-.194.645-.054.177-.106.356-.164.532-.07.218-.147.432-.222.648-.059.171-.117.342-.18.512-.079.215-.164.428-.248.641-.065.167-.13.336-.2.5-.088.212-.18.422-.272.631-.071.163-.141.329-.214.491-.1.211-.2.42-.3.629-.076.157-.15.317-.228.473-.1.208-.215.415-.325.621-.082.153-.16.308-.244.46-.112.2-.231.406-.348.609-.087.15-.171.3-.26.449-.12.2-.246.4-.371.594-.092.147-.183.294-.277.439-.129.2-.262.39-.4.584-.1.142-.191.285-.29.424-.137.193-.279.383-.42.573-.1.137-.2.276-.3.41-.144.189-.295.374-.443.559-.1.132-.208.265-.316.395-.152.184-.309.364-.466.544-.11.128-.218.257-.33.383-.159.18-.326.353-.489.53-.113.122-.225.246-.34.366-.167.174-.34.343-.511.513-.118.118-.234.237-.354.353-.174.168-.353.331-.532.495-.122.112-.241.228-.365.338-.183.163-.371.322-.559.481-.124.106-.246.214-.371.319-.19.157-.386.309-.58.463-.128.1-.252.2-.381.3-.2.149-.4.293-.594.438-.134.1-.265.2-.4.293-.2.143-.411.281-.618.419-.135.091-.268.185-.4.274-.214.14-.434.273-.653.408-.134.082-.265.168-.4.249-.226.135-.457.262-.685.392-.133.075-.261.152-.395.225-.23.126-.464.243-.7.364-.138.07-.273.145-.413.214-.242.121-.489.233-.734.347-.134.062-.266.129-.4.189-.3.133-.6.257-.9.381-.088.037-.175.076-.264.112q-.587.236-1.188.451l-56,20c-.77.276-1.525.577-2.272.892-.161.067-.323.136-.483.205-.725.317-1.442.648-2.144,1-.109.055-.216.112-.323.168q-.962.494-1.895,1.032c-.119.068-.24.135-.358.2q-1.011.6-1.981,1.244c-.133.089-.265.18-.4.27-.628.428-1.247.867-1.849,1.325l-.1.077c-.626.479-1.234.978-1.831,1.488q-.191.163-.38.328c-.585.512-1.16,1.036-1.717,1.577-.063.061-.124.126-.187.188q-.768.757-1.5,1.549c-.064.07-.135.136-.2.205v-10.3A32.385,32.385,0,0,1,205.026,89.615Zm-20.9,223.179c.013-.072.025-.145.039-.219.127-.654.278-1.3.443-1.943.028-.1.053-.21.082-.314q.254-.938.562-1.855c.037-.109.074-.218.112-.326.213-.612.441-1.217.69-1.813.037-.09.078-.179.115-.269.262-.615.539-1.223.839-1.818.02-.041.043-.082.064-.123q.451-.891.958-1.753c.028-.048.055-.1.083-.145.338-.569.7-1.124,1.068-1.671.057-.084.112-.168.17-.25q.549-.791,1.144-1.547l.213-.269q.6-.749,1.246-1.465c.069-.077.14-.151.21-.228.446-.484.906-.959,1.382-1.417l.139-.13q.736-.7,1.515-1.352l.064-.055c.523-.434,1.062-.85,1.613-1.252.071-.052.142-.106.214-.158.534-.383,1.083-.749,1.641-1.1l.276-.172q.84-.515,1.715-.983c.091-.049.183-.1.274-.143.6-.312,1.208-.609,1.831-.883.064-.028.13-.054.193-.082.657-.286,1.325-.555,2.007-.8l56-20c.77-.276,1.526-.578,2.273-.893.16-.067.321-.135.48-.2q1.089-.475,2.147-1c.108-.054.213-.112.321-.167q.962-.494,1.894-1.032c.12-.069.242-.136.361-.206q1.007-.594,1.977-1.241c.137-.091.271-.184.406-.276.621-.423,1.232-.857,1.828-1.309.041-.031.084-.06.125-.092.623-.476,1.227-.973,1.822-1.481.131-.112.261-.224.391-.337.582-.51,1.154-1.031,1.709-1.569.067-.066.133-.135.2-.2q.763-.75,1.484-1.537c.065-.07.136-.137.2-.208v10.3a32.391,32.391,0,0,1-21.453,30.441L207.82,314.88H183.8c0-.014,0-.029.006-.043C183.891,314.152,184,313.471,184.125,312.794Zm46.984,59.133A47.87,47.87,0,0,1,190.52,349.11H271.7A47.869,47.869,0,0,1,231.109,371.927Zm62.749-45.635V337.7h-125.5V326.292h125.5Zm-15.212-11.409H241.741l19.29-6.89a43.6,43.6,0,0,0,17.616-11.765v18.655Zm-21.453-57.363-56,20-.055.022c-.745.267-1.475.559-2.2.863-.173.073-.344.145-.516.219-.718.314-1.426.641-2.121.991-.118.059-.235.124-.353.184q-.942.484-1.856,1.012c-.128.074-.257.145-.384.22q-1,.591-1.964,1.233c-.141.094-.279.189-.419.285-.616.42-1.223.851-1.816,1.3-.043.033-.088.064-.132.1-.621.475-1.225.971-1.819,1.478q-.2.168-.394.339c-.582.51-1.154,1.029-1.708,1.569-.067.065-.132.134-.2.2q-.764.751-1.487,1.541c-.064.07-.135.135-.2.206v-10.3a32.391,32.391,0,0,1,21.453-30.441l56-20c.77-.276,1.526-.578,2.273-.893.16-.067.321-.135.48-.2q1.089-.475,2.147-1c.108-.054.213-.112.321-.167q.962-.494,1.894-1.032c.12-.069.242-.136.361-.206q1.009-.594,1.977-1.241c.136-.091.27-.183.405-.276.621-.423,1.232-.857,1.828-1.309.041-.031.084-.06.125-.092.623-.476,1.227-.973,1.822-1.481.131-.112.261-.224.391-.337.582-.51,1.154-1.031,1.709-1.569.067-.065.132-.134.2-.2.509-.5,1-1.014,1.485-1.539.065-.07.135-.136.2-.207v10.3A32.392,32.392,0,0,1,257.193,257.519Zm0-39.73-56,20c-.77.276-1.525.577-2.272.892-.161.067-.323.136-.483.205-.725.317-1.442.648-2.144,1-.109.055-.215.112-.323.168q-.962.494-1.895,1.032c-.12.068-.24.135-.358.2q-1.011.6-1.981,1.244c-.133.089-.265.18-.4.27-.628.428-1.247.867-1.849,1.325l-.1.077c-.626.479-1.234.978-1.831,1.488q-.191.163-.38.328c-.585.512-1.16,1.036-1.717,1.577-.063.061-.124.126-.187.188q-.768.757-1.5,1.549c-.064.07-.135.136-.2.205v-10.3A32.392,32.392,0,0,1,205.028,208.8l56-20c.77-.276,1.524-.577,2.271-.892.161-.068.323-.136.483-.205.725-.317,1.441-.648,2.144-1,.109-.055.217-.114.326-.17q.959-.492,1.888-1.029c.121-.07.243-.137.364-.207q1.008-.594,1.977-1.241c.136-.09.27-.183.4-.274.624-.425,1.239-.862,1.838-1.316.037-.028.076-.055.113-.084.625-.478,1.232-.976,1.828-1.485.129-.109.255-.219.383-.33.585-.511,1.158-1.034,1.715-1.575.065-.063.128-.13.192-.193q.766-.754,1.491-1.545c.064-.07.135-.136.2-.206v10.3A32.393,32.393,0,0,1,257.193,217.789Zm0-39.731-56,20c-.77.276-1.526.578-2.273.893-.16.067-.321.135-.48.2q-1.089.475-2.147,1c-.108.054-.213.112-.321.167q-.962.494-1.9,1.033c-.12.069-.24.136-.359.205q-1.01.6-1.98,1.243c-.135.09-.267.181-.4.273-.625.426-1.241.863-1.84,1.319-.037.028-.075.054-.112.082-.625.478-1.232.976-1.828,1.485-.129.109-.257.22-.384.331-.585.511-1.158,1.035-1.715,1.575-.064.062-.126.127-.189.19q-.769.758-1.5,1.551c-.063.069-.133.133-.2.2v-10.3a32.379,32.379,0,0,1,21.453-30.441l56-20c.77-.276,1.526-.578,2.273-.893.16-.067.321-.135.48-.2q1.089-.475,2.147-1c.108-.054.213-.112.321-.167q.962-.494,1.894-1.032c.12-.069.242-.136.361-.206q1.007-.594,1.977-1.241c.137-.091.271-.184.406-.276.621-.423,1.232-.857,1.828-1.309.041-.031.084-.06.125-.092.623-.476,1.227-.973,1.822-1.481.131-.112.261-.224.391-.337.582-.51,1.155-1.03,1.709-1.569.067-.066.133-.135.2-.2q.762-.75,1.484-1.537c.065-.07.136-.137.2-.208v10.3A32.393,32.393,0,0,1,257.193,178.059Zm0-39.729-56,20-.055.022c-.745.267-1.475.559-2.2.863-.173.073-.344.144-.516.219-.718.314-1.426.641-2.121.991-.118.059-.235.124-.353.184q-.942.484-1.856,1.012c-.128.074-.257.144-.384.22q-1,.591-1.964,1.233c-.141.094-.279.189-.419.285-.616.42-1.223.851-1.816,1.3-.043.033-.088.064-.132.1-.621.475-1.225.971-1.819,1.478q-.2.168-.394.339c-.582.51-1.154,1.029-1.708,1.569-.067.065-.132.134-.2.2q-.764.751-1.487,1.541c-.064.07-.135.136-.2.206v-10.3a32.391,32.391,0,0,1,21.453-30.441l56-20c.77-.276,1.526-.578,2.273-.893.16-.067.321-.135.48-.2q1.089-.475,2.147-1c.108-.054.213-.112.321-.167q.962-.494,1.894-1.032c.12-.069.242-.136.361-.206q1.009-.594,1.977-1.241c.136-.091.27-.183.405-.276.621-.423,1.232-.857,1.828-1.309.041-.031.084-.06.125-.092.623-.476,1.227-.973,1.822-1.481.131-.112.261-.224.391-.337.582-.51,1.154-1.03,1.709-1.569.067-.065.132-.134.2-.2.509-.5,1-1.014,1.485-1.539.065-.07.135-.136.2-.207v10.3A32.393,32.393,0,0,1,257.193,138.33Zm36.665-92.695V57.044h-125.5V45.635h125.5Z" transform="translate(47.268 1925.731)" fill="#dcdfe5"/>
    <path id="Path_4680" data-name="Path 4680" d="M231.109,0a59.324,59.324,0,0,0-53.5,34.226H156.952V68.452h15.211V314.882H156.952v34.226h20.656a58.929,58.929,0,0,0,107,0h20.656V314.883H290.055V68.453h15.211V34.226H284.61A59.322,59.322,0,0,0,231.109,0Zm0,11.409A47.869,47.869,0,0,1,271.7,34.226H190.52A47.87,47.87,0,0,1,231.109,11.409ZM183.573,68.453h46.786l-29.17,10.417a43.6,43.6,0,0,0-17.616,11.766V68.453Zm21.453,21.162,56-20c.6-.215,1.211-.454,1.822-.706.173-.07.344-.144.517-.218.189-.08.377-.154.565-.238h14.707c0,.162-.005.323-.01.485-.005.213-.009.425-.018.637s-.025.422-.037.633-.025.416-.043.624-.041.425-.063.636-.04.406-.065.609-.058.43-.089.644c-.028.2-.055.393-.086.588-.035.218-.076.433-.115.649-.035.191-.068.383-.106.573-.044.218-.094.434-.142.651-.042.186-.082.373-.127.558-.052.218-.111.434-.168.65-.048.182-.094.365-.145.545-.061.216-.129.431-.194.645-.054.177-.106.356-.164.532-.07.218-.147.432-.222.648-.059.171-.117.342-.18.512-.079.215-.164.428-.248.641-.065.167-.13.336-.2.5-.088.212-.18.422-.272.631-.071.163-.141.329-.214.491-.1.211-.2.42-.3.629-.076.157-.15.317-.228.473-.1.208-.215.415-.325.621-.082.153-.16.308-.244.46-.112.2-.231.406-.348.609-.087.15-.171.3-.26.449-.12.2-.246.4-.371.594-.092.147-.183.294-.277.439-.129.2-.262.39-.4.584-.1.142-.191.285-.29.424-.137.193-.279.383-.42.573-.1.137-.2.276-.3.41-.144.189-.295.374-.443.559-.1.132-.208.265-.316.395-.152.184-.309.364-.466.544-.11.128-.218.257-.33.383-.159.18-.326.353-.489.53-.113.122-.225.246-.34.366-.167.174-.34.343-.511.513-.118.118-.234.237-.354.353-.174.168-.353.331-.532.495-.122.112-.241.228-.365.338-.183.163-.371.322-.559.481-.124.106-.246.214-.371.319-.19.157-.386.309-.58.463-.128.1-.252.2-.381.3-.2.149-.4.293-.594.438-.134.1-.265.2-.4.293-.2.143-.411.281-.618.419-.135.091-.268.185-.4.274-.214.14-.434.273-.653.408-.134.082-.265.168-.4.249-.226.135-.457.262-.685.392-.133.075-.261.152-.395.225-.23.126-.464.243-.7.364-.138.07-.273.145-.413.214-.242.121-.489.233-.734.347-.134.062-.266.129-.4.189-.3.133-.6.257-.9.381-.088.037-.175.076-.264.112q-.587.236-1.188.451l-56,20c-.77.276-1.525.577-2.272.892-.161.067-.323.136-.483.205-.725.317-1.442.648-2.144,1-.109.055-.216.112-.323.168q-.962.494-1.895,1.032c-.119.068-.24.135-.358.2q-1.011.6-1.981,1.244c-.133.089-.265.18-.4.27-.628.428-1.247.867-1.849,1.325l-.1.077c-.626.479-1.234.978-1.831,1.488q-.191.163-.38.328c-.585.512-1.16,1.036-1.717,1.577-.063.061-.124.126-.187.188q-.768.757-1.5,1.549c-.064.07-.135.136-.2.205v-10.3A32.385,32.385,0,0,1,205.026,89.615Zm-20.9,223.179c.013-.072.025-.145.039-.219.127-.654.278-1.3.443-1.943.028-.1.053-.21.082-.314q.254-.938.562-1.855c.037-.109.074-.218.112-.326.213-.612.441-1.217.69-1.813.037-.09.078-.179.115-.269.262-.615.539-1.223.839-1.818.02-.041.043-.082.064-.123q.451-.891.958-1.753c.028-.048.055-.1.083-.145.338-.569.7-1.124,1.068-1.671.057-.084.112-.168.17-.25q.549-.791,1.144-1.547l.213-.269q.6-.749,1.246-1.465c.069-.077.14-.151.21-.228.446-.484.906-.959,1.382-1.417l.139-.13q.736-.7,1.515-1.352l.064-.055c.523-.434,1.062-.85,1.613-1.252.071-.052.142-.106.214-.158.534-.383,1.083-.749,1.641-1.1l.276-.172q.84-.515,1.715-.983c.091-.049.183-.1.274-.143.6-.312,1.208-.609,1.831-.883.064-.028.13-.054.193-.082.657-.286,1.325-.555,2.007-.8l56-20c.77-.276,1.526-.578,2.273-.893.16-.067.321-.135.48-.2q1.089-.475,2.147-1c.108-.054.213-.112.321-.167q.962-.494,1.894-1.032c.12-.069.242-.136.361-.206q1.007-.594,1.977-1.241c.137-.091.271-.184.406-.276.621-.423,1.232-.857,1.828-1.309.041-.031.084-.06.125-.092.623-.476,1.227-.973,1.822-1.481.131-.112.261-.224.391-.337.582-.51,1.154-1.031,1.709-1.569.067-.066.133-.135.2-.2q.763-.75,1.484-1.537c.065-.07.136-.137.2-.208v10.3a32.391,32.391,0,0,1-21.453,30.441L207.82,314.88H183.8c0-.014,0-.029.006-.043C183.891,314.152,184,313.471,184.125,312.794Zm46.984,59.133A47.87,47.87,0,0,1,190.52,349.11H271.7A47.869,47.869,0,0,1,231.109,371.927Zm62.749-45.635V337.7h-125.5V326.292h125.5Zm-15.212-11.409H241.741l19.29-6.89a43.6,43.6,0,0,0,17.616-11.765v18.655Zm-21.453-57.363-56,20-.055.022c-.745.267-1.475.559-2.2.863-.173.073-.344.145-.516.219-.718.314-1.426.641-2.121.991-.118.059-.235.124-.353.184q-.942.484-1.856,1.012c-.128.074-.257.145-.384.22q-1,.591-1.964,1.233c-.141.094-.279.189-.419.285-.616.42-1.223.851-1.816,1.3-.043.033-.088.064-.132.1-.621.475-1.225.971-1.819,1.478q-.2.168-.394.339c-.582.51-1.154,1.029-1.708,1.569-.067.065-.132.134-.2.2q-.764.751-1.487,1.541c-.064.07-.135.135-.2.206v-10.3a32.391,32.391,0,0,1,21.453-30.441l56-20c.77-.276,1.526-.578,2.273-.893.16-.067.321-.135.48-.2q1.089-.475,2.147-1c.108-.054.213-.112.321-.167q.962-.494,1.894-1.032c.12-.069.242-.136.361-.206q1.009-.594,1.977-1.241c.136-.091.27-.183.405-.276.621-.423,1.232-.857,1.828-1.309.041-.031.084-.06.125-.092.623-.476,1.227-.973,1.822-1.481.131-.112.261-.224.391-.337.582-.51,1.154-1.031,1.709-1.569.067-.065.132-.134.2-.2.509-.5,1-1.014,1.485-1.539.065-.07.135-.136.2-.207v10.3A32.392,32.392,0,0,1,257.193,257.519Zm0-39.73-56,20c-.77.276-1.525.577-2.272.892-.161.067-.323.136-.483.205-.725.317-1.442.648-2.144,1-.109.055-.215.112-.323.168q-.962.494-1.895,1.032c-.12.068-.24.135-.358.2q-1.011.6-1.981,1.244c-.133.089-.265.18-.4.27-.628.428-1.247.867-1.849,1.325l-.1.077c-.626.479-1.234.978-1.831,1.488q-.191.163-.38.328c-.585.512-1.16,1.036-1.717,1.577-.063.061-.124.126-.187.188q-.768.757-1.5,1.549c-.064.07-.135.136-.2.205v-10.3A32.392,32.392,0,0,1,205.028,208.8l56-20c.77-.276,1.524-.577,2.271-.892.161-.068.323-.136.483-.205.725-.317,1.441-.648,2.144-1,.109-.055.217-.114.326-.17q.959-.492,1.888-1.029c.121-.07.243-.137.364-.207q1.008-.594,1.977-1.241c.136-.09.27-.183.4-.274.624-.425,1.239-.862,1.838-1.316.037-.028.076-.055.113-.084.625-.478,1.232-.976,1.828-1.485.129-.109.255-.219.383-.33.585-.511,1.158-1.034,1.715-1.575.065-.063.128-.13.192-.193q.766-.754,1.491-1.545c.064-.07.135-.136.2-.206v10.3A32.393,32.393,0,0,1,257.193,217.789Zm0-39.731-56,20c-.77.276-1.526.578-2.273.893-.16.067-.321.135-.48.2q-1.089.475-2.147,1c-.108.054-.213.112-.321.167q-.962.494-1.9,1.033c-.12.069-.24.136-.359.205q-1.01.6-1.98,1.243c-.135.09-.267.181-.4.273-.625.426-1.241.863-1.84,1.319-.037.028-.075.054-.112.082-.625.478-1.232.976-1.828,1.485-.129.109-.257.22-.384.331-.585.511-1.158,1.035-1.715,1.575-.064.062-.126.127-.189.19q-.769.758-1.5,1.551c-.063.069-.133.133-.2.2v-10.3a32.379,32.379,0,0,1,21.453-30.441l56-20c.77-.276,1.526-.578,2.273-.893.16-.067.321-.135.48-.2q1.089-.475,2.147-1c.108-.054.213-.112.321-.167q.962-.494,1.894-1.032c.12-.069.242-.136.361-.206q1.007-.594,1.977-1.241c.137-.091.271-.184.406-.276.621-.423,1.232-.857,1.828-1.309.041-.031.084-.06.125-.092.623-.476,1.227-.973,1.822-1.481.131-.112.261-.224.391-.337.582-.51,1.155-1.03,1.709-1.569.067-.066.133-.135.2-.2q.762-.75,1.484-1.537c.065-.07.136-.137.2-.208v10.3A32.393,32.393,0,0,1,257.193,178.059Zm0-39.729-56,20-.055.022c-.745.267-1.475.559-2.2.863-.173.073-.344.144-.516.219-.718.314-1.426.641-2.121.991-.118.059-.235.124-.353.184q-.942.484-1.856,1.012c-.128.074-.257.144-.384.22q-1,.591-1.964,1.233c-.141.094-.279.189-.419.285-.616.42-1.223.851-1.816,1.3-.043.033-.088.064-.132.1-.621.475-1.225.971-1.819,1.478q-.2.168-.394.339c-.582.51-1.154,1.029-1.708,1.569-.067.065-.132.134-.2.2q-.764.751-1.487,1.541c-.064.07-.135.136-.2.206v-10.3a32.391,32.391,0,0,1,21.453-30.441l56-20c.77-.276,1.526-.578,2.273-.893.16-.067.321-.135.48-.2q1.089-.475,2.147-1c.108-.054.213-.112.321-.167q.962-.494,1.894-1.032c.12-.069.242-.136.361-.206q1.009-.594,1.977-1.241c.136-.091.27-.183.405-.276.621-.423,1.232-.857,1.828-1.309.041-.031.084-.06.125-.092.623-.476,1.227-.973,1.822-1.481.131-.112.261-.224.391-.337.582-.51,1.154-1.03,1.709-1.569.067-.065.132-.134.2-.2.509-.5,1-1.014,1.485-1.539.065-.07.135-.136.2-.207v10.3A32.393,32.393,0,0,1,257.193,138.33Zm36.665-92.695V57.044h-125.5V45.635h125.5Z" transform="translate(251.104 1925.731)" fill="#dcdfe5"/>
    <rect id="Rectangle_15350" data-name="Rectangle 15350" width="11.409" height="11.409" transform="translate(170.754 2089.257)" fill="#dcdfe5"/>
    <rect id="Rectangle_15359" data-name="Rectangle 15359" width="11.409" height="11.409" transform="translate(374.591 2089.257)" fill="#dcdfe5"/>
    <rect id="Rectangle_15351" data-name="Rectangle 15351" width="11.409" height="11.409" transform="translate(170.754 2134.892)" fill="#dcdfe5"/>
    <rect id="Rectangle_15360" data-name="Rectangle 15360" width="11.409" height="11.409" transform="translate(374.591 2134.892)" fill="#dcdfe5"/>
    <rect id="Rectangle_15352" data-name="Rectangle 15352" width="11.409" height="11.409" transform="translate(170.754 2112.075)" fill="#dcdfe5"/>
    <rect id="Rectangle_15361" data-name="Rectangle 15361" width="11.409" height="11.409" transform="translate(374.591 2112.075)" fill="#dcdfe5"/>
    <rect id="Rectangle_15358" data-name="Rectangle 15358" width="11.409" height="11.409" transform="translate(578.428 2134.892)" fill="#dcdfe5"/>
    <rect id="Rectangle_15356" data-name="Rectangle 15356" width="11.409" height="11.409" transform="translate(578.428 2112.075)" fill="#dcdfe5"/>
    <rect id="Rectangle_15357" data-name="Rectangle 15357" width="11.409" height="11.409" transform="translate(578.428 2089.257)" fill="#dcdfe5"/>
  </g>
</svg>
