<svg xmlns="http://www.w3.org/2000/svg" width="1138" height="1138" viewBox="0 0 384.015 384.003">
  <g id="Group_11943" data-name="Group 11943" transform="translate(-370.492 -757)">
    <path id="Path_4712" data-name="Path 4712" d="M-1487.554,585.011-1512.22,755.38l-3.165,76.445,11.6,58.066,16.879,10.549h221.011l17.934-12.132-6.33-46.418-3.692-55.385,27-201.495Z" transform="translate(1935.742 236.503)" fill="#edf8ff"/>
    <circle id="Ellipse_85" data-name="Ellipse 85" cx="68.493" cy="68.493" r="68.493" transform="translate(493.998 852.754)" fill="#fff3f2"/>
    <path id="Path_4713" data-name="Path 4713" d="M-1491.648,587.648l-67.516-2.637v43.253l13.187,20.571h48Z" transform="translate(1935.742 236.503)" fill="#edf8ff"/>
    <path id="Path_4714" data-name="Path 4714" d="M-1188.879,587.648c-2.637.528-42.095,0-42.095,0l-5.378,61.187,36.923-2.637,16.88-14.558Z" transform="translate(1935.742 236.503)" fill="#edf8ff"/>
    <path id="Path_4715" data-name="Path 4715" d="M-1512.747,525.934h-32.176l-14.242,13.714,2.637,52.317,281.1-.208,88.661.208-2.11-50.207-12.132-15.824Z" transform="translate(1935.742 236.503)" fill="#fff3f2"/>
    <path id="Path_4716" data-name="Path 4716" d="M-1565.25,627.75V544.5a10.914,10.914,0,0,0,.577-1.361c4.125-14.953,14.058-22.634,29.4-22.635q162.175-.012,324.35,0c17.715,0,29.647,11.937,29.669,29.636q.043,36,0,71.995c-.022,17.667-11.985,29.561-29.71,29.608-7.234.019-14.467,0-21.946,0-.927,5.74-1.884,11.247-2.7,16.775-4.708,31.988-10.058,63.9-13.89,95.995-4.5,37.669-3.807,75.306,4.883,112.526a22.5,22.5,0,0,1-13.177,25.529c-1.693.738-3.468,1.288-5.2,1.925h-228c-.191-.154-.36-.4-.576-.45-12.4-2.921-19.175-10.914-22.136-23.148-7.083-29.267-9.027-58.94-7.789-88.894,1.456-35.259,7.077-70.02,12.867-104.756,1.947-11.684,3.823-23.38,5.8-35.5h-4.34c-9.995,0-19.991.081-29.985-.028a28.164,28.164,0,0,1-27.227-21.138C-1564.641,629.631-1564.96,628.694-1565.25,627.75Zm293.965-35.793c-1.948-.1-3.046-.2-4.146-.2-5.749-.018-11.5.061-17.248-.042-3.552-.064-5.869-2.311-5.959-5.442-.1-3.278,2.3-5.578,6.028-5.759,1-.048,2-.014,3-.014h97.065c0-11.415.246-22.286-.079-33.139-.253-8.421-7.452-15.17-15.9-15.56-3.243-.15-6.5-.05-9.747-.05q-158.615,0-317.229,0c-11.564,0-18.467,6.877-18.5,18.368-.019,7.5,0,15,0,22.5V580.5h234.866c1.25,0,2.508-.07,3.748.042a5.486,5.486,0,0,1,5.34,5.631c-.03,3.051-2.169,5.261-5.446,5.541-1.117.1-2.249.034-3.373.034h-130.69c-.138.825-.211,1.19-.259,1.559-3.688,28.349-7.156,56.729-11.129,85.038-3.3,23.488-7.3,46.877-10.763,70.343-1.294,8.765-1.76,17.653-3.041,26.42a9.63,9.63,0,0,1-3.744,5.818c-1.109.776-4.273.2-5.307-.9a8.349,8.349,0,0,1-1.905-5.985c2.182-18.725,4.364-37.457,7.058-56.114,5.122-35.461,10.641-70.865,15.846-106.314.951-6.471,1.193-13.046,1.764-19.6h-23.151c-.112.876-.19,1.494-.272,2.112-3.575,26.853-6.746,53.768-10.824,80.545-5.884,38.638-13.134,77.083-14.878,116.247-1.34,30.106.42,59.936,7.907,89.257,2.168,8.492,8.042,13.066,16.821,13.067q108.555.02,217.11,0c9.432,0,13.963-6.275,12.466-15.591-2.671-16.622-5.69-33.278-6.824-50.038-2.237-33.047,1.076-65.916,5.955-98.6,5.678-38.031,11.7-76.011,17.4-114.038,1.138-7.587,1.506-15.289,2.241-23.053h-23.233c-.242,2.73-.343,5.336-.718,7.9-4.983,34.094-9.735,68.225-15.083,102.262-6.583,41.9-12.031,83.85-10.036,126.417.231,4.936-1.082,6.411-5.948,7.4-14.8,3-23.365,12.521-24.694,27.465-.449,5.038-2.092,6.647-7.07,6.649q-58.308.026-116.617,0c-4.927,0-6.788-1.815-7.038-6.694a28.046,28.046,0,0,0-5.434-15.7c-6.576-8.825-15.464-12.668-26.4-11.951-4.366.287-7-1.192-7.131-4.716q-.63-16.476-.669-32.97c-.009-3.15,2.246-4.948,5.4-5.151,2.952-.19,5.385,2.137,5.681,5.327.138,1.486.023,3,.023,4.5,0,7.1,0,14.192,0,21.349,21.835,2.184,34.915,13.739,39.623,34.513h108.681c3.488-17.237,13.576-28.182,30.153-33.215,0-1.656.044-3.148-.006-4.637a439.738,439.738,0,0,1,4.166-76.649c5.1-35.968,11.131-71.8,16.52-107.735C-1274.728,621.729-1273.184,607.074-1271.285,591.957Zm-224.036.053h-58.617c0,11.231-.263,22.212.09,33.172.248,7.659,6.559,14.646,14.278,15,12.679.586,25.4.159,38.665.159Zm264.347,48.2a5.448,5.448,0,0,0,.987.246c6.617.02,13.234.076,19.85.029,10.476-.074,17.568-7.193,17.626-17.7.05-9.364.019-18.728,0-28.091a27.155,27.155,0,0,0-.262-2.728h-32.757C-1227.357,608.144-1229.158,624.113-1230.974,640.213Z" transform="translate(1935.742 236.503)" fill="#dcdfe5"/>
    <path id="Path_4717" data-name="Path 4717" d="M-1373.586,759.236a74.45,74.45,0,0,1-74.159-75.026,74.389,74.389,0,0,1,75.2-73.955,74.409,74.409,0,0,1,73.784,75A74.446,74.446,0,0,1-1373.586,759.236Zm63.581-74.33a63.135,63.135,0,0,0-62.886-63.4,63.122,63.122,0,0,0-63.608,63.052,63.181,63.181,0,0,0,62.883,63.43A63.181,63.181,0,0,0-1310.005,684.906Z" transform="translate(1935.742 236.503)" fill="#dcdfe5"/>
    <path id="Path_4718" data-name="Path 4718" d="M-1355.058,804.64a26.948,26.948,0,0,1-26.986,27.184,27.083,27.083,0,0,1-27.22-27.005,27.039,27.039,0,0,1,27.039-27.168A26.926,26.926,0,0,1-1355.058,804.64Zm-11.251.133a15.658,15.658,0,0,0-15.885-15.871,15.759,15.759,0,0,0-15.82,15.6,15.8,15.8,0,0,0,15.734,16.074A15.7,15.7,0,0,0-1366.309,804.773Z" transform="translate(1935.742 236.503)" fill="#dcdfe5"/>
  </g>
</svg>
