<svg xmlns="http://www.w3.org/2000/svg" width="60" height="60" viewBox="0 0 222 222">
  <g id="ic_current" transform="translate(80.712 40.504)">
    <circle id="Oval" cx="111" cy="111" r="111" transform="translate(-80.712 -40.504)" fill="rgba(245,45,86,0.1)"/>
    <g id="ic_pin" transform="translate(-9.268 4.497)">
      <g id="Oval-2" data-name="Oval" fill="#dc3c2a" stroke-miterlimit="10">
        <path d="M 33.49642181396484 85.58126068115234 C 33.21106338500977 85.4759521484375 32.17484664916992 84.95430755615234 29.57873725891113 82.42408752441406 C 27.67242431640625 80.566162109375 25.29522514343262 77.98139953613281 22.70416259765625 74.94924926757812 C 17.9291877746582 69.36143493652344 12.96567535400391 62.87300109863281 10.90203762054443 59.52118682861328 C 8.028937339782715 54.85466003417969 5.54764986038208 50.82450103759766 3.911012411117554 46.75397491455078 C 2.243587493896484 42.60688781738281 1.5 38.51532363891602 1.5 33.48742294311523 C 1.5 29.1685619354248 2.345837593078613 24.97967338562012 4.014025211334229 21.03712463378906 C 5.625637531280518 17.22827339172363 7.933125019073486 13.80726146697998 10.87238788604736 10.86909961700439 C 13.81168746948242 7.930899143218994 17.23406219482422 5.624236583709717 21.04442405700684 4.013186931610107 C 24.98863792419434 2.345561742782593 29.17930030822754 1.499999284744263 33.5 1.499999284744263 C 37.82070159912109 1.499999284744263 42.0113639831543 2.345561742782593 45.95557403564453 4.013186931610107 C 49.76593780517578 5.624236583709717 53.18831253051758 7.930899143218994 56.12761306762695 10.86909961700439 C 59.06687545776367 13.80726146697998 61.37436294555664 17.22827339172363 62.9859733581543 21.03712463378906 C 64.65415954589844 24.97967338562012 65.5 29.1685619354248 65.5 33.48742294311523 C 65.5 38.34038543701172 64.74931335449219 42.33503723144531 63.06593704223633 46.43978500366211 C 61.47117614746094 50.32847595214844 59.14993667602539 54.09067535400391 56.21115112304688 58.85379791259766 L 55.79999923706055 59.52031326293945 C 53.82308578491211 62.72632598876953 48.85697555541992 69.28376007080078 44.24838638305664 74.77349853515625 C 41.66386413574219 77.8521728515625 39.30068588256836 80.47237396240234 37.41436386108398 82.35083770751953 C 34.81857681274414 84.93580627441406 33.78158569335938 85.47243499755859 33.49642181396484 85.58126068115234 Z" stroke="none"/>
        <path d="M 33.48704528808594 83.84127807617188 C 34.05633163452148 83.43093872070312 35.11388778686523 82.56133270263672 36.87445449829102 80.76512908935547 C 38.74081802368164 78.86098480224609 41.03680038452148 76.28425598144531 43.51418304443359 73.31349182128906 C 48.00247192382812 67.93130493164062 52.6324348449707 61.79934310913086 54.52320098876953 58.73303604125977 L 54.93460083007812 58.06610870361328 C 57.8372917175293 53.36148834228516 60.1300163269043 49.64548873901367 61.67810821533203 45.87059783935547 C 63.28390884399414 41.95503616333008 64 38.13591003417969 64 33.48741912841797 C 64 29.37045288085938 63.19405364990234 25.37823486328125 61.60454559326172 21.62163543701172 C 60.06859970092773 17.99160003662109 57.86911010742188 14.73085403442383 55.06716537475586 11.92996311187744 C 52.26512908935547 9.12898063659668 49.00301742553711 6.930235385894775 45.37143707275391 5.394781112670898 C 41.61305618286133 3.805726528167725 37.61892700195312 2.999999284744263 33.5 2.999999284744263 C 29.38107299804688 2.999999284744263 25.3869457244873 3.805726528167725 21.62856292724609 5.394781112670898 C 17.99698257446289 6.930235385894775 14.73487281799316 9.12898063659668 11.93283653259277 11.92996311187744 C 9.130890846252441 14.73085403442383 6.931399822235107 17.99160003662109 5.395454406738281 21.62163543701172 C 3.80594539642334 25.37823486328125 3 29.37045288085938 3 33.48741912841797 C 3 38.31458282470703 3.710181713104248 42.23356246948242 5.302727222442627 46.19440078735352 C 6.891818046569824 50.14663696289062 9.342126846313477 54.12649154663086 12.17934513092041 58.73477935791016 C 14.12289047241211 61.89152526855469 18.85172653198242 68.09292602539062 23.4234733581543 73.4803466796875 C 25.9061450958252 76.40596008300781 28.21563720703125 78.94856262207031 30.10225486755371 80.83321380615234 C 31.85972213745117 82.58888244628906 32.91678619384766 83.43941497802734 33.48704528808594 83.84127807617188 M 33.5 87.09999847412109 C 30.10092735290527 87.09999847412109 13.88663673400879 67.22992706298828 9.624709129333496 60.3076171875 C 3.509872674942017 50.37576293945312 0 44.52867126464844 0 33.48741912841797 C 0 14.99283599853516 14.99845409393311 -7.629394644936838e-07 33.5 -7.629394644936838e-07 C 52.00154495239258 -7.629394644936838e-07 67 14.99283599853516 67 33.48741912841797 C 67 44.47152709960938 63.21208953857422 50.35778045654297 57.07676315307617 60.3076171875 C 53.08556365966797 66.7802734375 36.89907455444336 87.09999847412109 33.5 87.09999847412109 Z" stroke="none" fill="#bb0b0a"/>
      </g>
      <circle id="Oval-3" data-name="Oval" cx="17.867" cy="17.867" r="17.867" transform="translate(15.633 15.633)" fill="#fff"/>
    </g>
  </g>
</svg>
