<svg xmlns="http://www.w3.org/2000/svg" width="484.666" height="350.032" viewBox="0 0 484.666 350.032">
  <g id="Group_11942" data-name="Group 11942" transform="translate(-243 -1374)">
    <path id="Path_4701" data-name="Path 4701" d="M-450.774,654.213c.148,7.681.148,15.52.01,23.3-.1,5.4-3.658,8.946-9.085,9.045-2.511.04-5.2.059-8.462.059-2.323,0-4.656-.01-6.979-.02-2.363-.01-4.715-.02-7.078-.02s-4.705.01-7.068.02q-3.485.015-6.969.02c-3.262,0-5.961-.02-8.472-.059-5.427-.1-9.006-3.638-9.095-9.015-.129-7.671-.129-15.52,0-23.32.1-5.378,3.717-9.035,9.025-9.095,7.473-.089,15.065-.138,22.568-.138,7.473,0,15.075.049,22.568.138C-454.5,645.188-450.873,648.845-450.774,654.213Z" transform="translate(1099.035 958.381)" fill="#a3a3a3"/>
    <path id="Path_4702" data-name="Path 4702" d="M-395.669,521.19H-836.538c-6.524,0-11.862,5.575-11.862,12.406V716.723c0,6.821,43.278,35.973,49.8,35.973h379.075c6.524,0,35.716-26.256,35.716-33.086V533.6C-383.806,526.765-389.144,521.19-395.669,521.19ZM-599.9,597.327a8.229,8.229,0,0,0-2.293-6.1,11.2,11.2,0,0,0-8-2.916q-6.08-.03-12.139-.03c-3.144,0-15.757.02-18.921.02l-67.586-.01q-30.665,0-61.309.02c-6.9,0-9,3.193-9.965,5.6a8.5,8.5,0,0,0,.722,8.136,9.361,9.361,0,0,0,7.928,4c9.806.049,20.453.069,33.482.069q11.462,0,22.934-.01,11.492-.015,22.964-.02h1.562s38.454.02,47.163.02q16.652,0,33.314-.03C-605.18,606.066-599.95,603.763-599.9,597.327Z" transform="translate(1102.867 959.8)" fill="#edf8ff"/>
    <path id="Path_4703" data-name="Path 4703" d="M-421.366,517.032H-829.3c-24.89,0-24.768-20.365-24.768-45.255h0c0-24.89,41.982-45.256,66.873-45.256h365.827c24.89,0,37.368,20.366,37.368,45.256h0C-384,496.667-375.548,517.814-421.366,517.032Z" transform="translate(1102.932 960.885)" fill="#fff3f2"/>
    <path id="Path_4708" data-name="Path 4708" d="M-599.117,598.105c-.049,6.435-5.279,8.739-10.142,8.749q-16.652.03-33.314.03c-8.709,0-47.163-.02-47.163-.02H-691.3q-11.477,0-22.964.02-11.462,0-22.934.01c-13.029,0-23.676-.02-33.482-.069a9.361,9.361,0,0,1-7.928-4,8.5,8.5,0,0,1-.722-8.136c.969-2.4,3.065-5.6,9.965-5.6q30.65-.015,61.309-.02l67.586.01c3.163,0,15.777-.02,18.921-.02q6.065,0,12.139.03a11.2,11.2,0,0,1,8,2.916A8.229,8.229,0,0,1-599.117,598.105Z" transform="translate(1102.083 959.022)" fill="#dcdfe5"/>
    <path id="Path_4710" data-name="Path 4710" d="M-450.764,677.513c-.1,5.4-3.658,8.946-9.085,9.045-2.511.04-5.2.059-8.462.059-2.323,0-4.656-.01-6.979-.02-2.363-.01-4.715-.02-7.078-.02s-4.705.01-7.068.02q-3.485.015-6.969.02c-3.262,0-5.961-.02-8.472-.059-5.427-.1-9.006-3.638-9.095-9.015-.129-7.671-.129-15.52,0-23.32.1-5.378,3.717-9.035,9.025-9.095,7.473-.089,15.065-.138,22.568-.138,7.473,0,15.075.049,22.568.138,5.308.059,8.936,3.717,9.035,9.085C-450.626,661.894-450.626,669.733-450.764,677.513Z" transform="translate(1099.035 958.381)" fill="#dcdfe5"/>
    <path id="Path_4711" data-name="Path 4711" d="M-375.616,693.32a2.445,2.445,0,0,0-.158-.386c-.85-2.076-3.193-6.91-8.165-7.157-.128-.01-.267-.01-.405-.01a9.534,9.534,0,0,0-1.384.109c-6.653,1.048-7.6,7.206-7.7,9.806-1.107,28.648-23.013,49.447-52.076,49.457q-85.988.015-172,.02-85.988,0-171.986-.02c-31.02,0-52.7-21.679-52.709-52.709q-.03-53.292-.01-106.574V526.009h448.8v16.4q0,7.918-.02,15.846c-.01,12.436-.03,25.307.069,37.93a8.745,8.745,0,0,0,7.088,8.551,8.894,8.894,0,0,0,1.769.188c.188,0,.376-.01.563-.02a9.151,9.151,0,0,0,7.562-5.417c.257-.534.514-1.028.761-1.493V473.577c-.188-.811-.376-1.631-.563-2.442-.593-2.58-1.157-5.022-1.8-7.414a68.743,68.743,0,0,0-5.961-14.966,68.8,68.8,0,0,0-9.955-13.9,67.54,67.54,0,0,0-49.476-21.807c-60.558-.059-120.187-.089-177.235-.089-58.344,0-116.084.03-171.63.089a67.59,67.59,0,0,0-44.237,16.588,67.65,67.65,0,0,0-7.375,7.493c-1.344,1.592-2.62,3.252-3.806,4.962a68.548,68.548,0,0,0-11.576,29.093,17.673,17.673,0,0,1-.771,3.064V702.375c.208.87.405,1.74.6,2.62.613,2.679,1.186,5.21,1.858,7.681,8.027,29.518,34.688,50.159,64.828,50.2,60.854.079,120.681.119,177.8.119,58.541,0,116.42-.04,172.016-.129,32.968-.049,61.6-25.02,66.509-58.116.178-1.206.623-2.2.771-3.074A31.1,31.1,0,0,0-375.616,693.32ZM-842.552,496.2c.119-2.353.168-4.785.217-7.127a115.934,115.934,0,0,1,1.226-17.112A49.259,49.259,0,0,1-811.285,434.7a50.423,50.423,0,0,1,18.624-3.845c5.417-.079,11.25-.109,18.367-.109q6.584,0,13.167.02,6.539.03,13.1.03h158.759q71.857,0,143.714.01a56.754,56.754,0,0,1,21.016,3.895c16.518,6.584,28.055,21.076,30.585,40.066a93.132,93.132,0,0,1,.376,15.668c-.069,2.175-.138,4.241-.138,6.307v10.874h-449.42Z" transform="translate(1103 961.04)" fill="#dcdfe5"/>
  </g>
</svg>
