<svg xmlns="http://www.w3.org/2000/svg" width="340.058" height="384.496" viewBox="0 0 340.058 384.496">
  <g id="Group_11940" data-name="Group 11940" transform="translate(-393 -1024)">
    <circle id="Ellipse_81" data-name="Ellipse 81" cx="18.598" cy="18.598" r="18.598" transform="translate(659.575 1032.584)" fill="#fff3f2"/>
    <circle id="Ellipse_82" data-name="Ellipse 82" cx="34.022" cy="34.022" r="34.022" transform="translate(523.529 1333.461)" fill="#fff3f2"/>
    <path id="Path_4682" data-name="Path 4682" d="M-659.061,329.362s8.665,31.571-24.961,43.078v5.142l15.755,2.77,15.1-3.165,12.8-10.682,8.163-14,1.978-19.624Z" transform="translate(1225.749 1024.054)" fill="#ffebe9"/>
    <path id="Path_4683" data-name="Path 4683" d="M-679.473,18.374l-4.54,14.242L-712.7,44.879l-45.1,27.3L-770.462,91.2l-8.822,16.679-13.727,41.836v72l-6.725,47.077-21.686,37.582-6.8,20.967,22.549,5.538,236.967-3.517h66.066l4.146-10.884-19.574-34.953-17.011-37.854,1.582-44.619,1.118-47.777-16.066-52.285L-576.9,67.529l-34.929-25.421-31.6-11.075-7.293-20.967-18.076-4.747Z" transform="translate(1225.749 1024.054)" fill="#edf8ff"/>
    <path id="Path_4684" data-name="Path 4684" d="M-552.088,8.879s21.7,24.876-4.352,35.605l8,5.142,18.788-2.806,6.051-17.567L-528.047,16l-10.59-10.681Z" transform="translate(1225.749 1024.054)" fill="#ffebe9"/>
    <path id="Path_4685" data-name="Path 4685" d="M-679.473,34.578S-560,46.626-567.516,184.61c0,0-7.121,77.06,19.978,107.126,0,0,22.609,26.506,15.161,38.374l9.564,2.769h23.34l3.408-8.225-8.08-20.564-25.789-45.98-3.561-57.058-.791-31.162-9.89-57.758L-578.2,65.753l-42.329-23.645L-648.22,27.129l-7.912-21.81h-17.406Z" transform="translate(1225.749 1024.054)" fill="#ddeffb"/>
    <circle id="Ellipse_83" data-name="Ellipse 83" cx="18.598" cy="18.598" r="18.598" transform="translate(644.376 1094.055)" fill="#fff3f2"/>
    <path id="Path_4686" data-name="Path 4686" d="M-568.7,69.8s28.483,16.616,0,32.835l8.532,4.76,9.58-4.011,10.569-11.79-4.154-15.027L-554.363,69.8Z" transform="translate(1225.749 1024.054)" fill="#ffebe9"/>
    <path id="Path_4687" data-name="Path 4687" d="M-718.242,68.947A21.362,21.362,0,0,0-739.6,47.584c-11.8,0-17.6,9.564-17.6,21.363s5.806,21.362,17.6,21.362A21.362,21.362,0,0,0-718.242,68.947Z" transform="translate(1225.749 1024.054)" fill="#ddeffb"/>
    <circle id="Ellipse_84" data-name="Ellipse 84" cx="18.598" cy="18.598" r="18.598" transform="translate(468.982 1055.082)" fill="#fff3f2"/>
    <path id="Path_4688" data-name="Path 4688" d="M-745.143,31.033s23.341,25.529,0,34.72V69.8l8.7,2.374,15.429-10.238,2.769-14.354-3.165-13.006-12.263-3.545Z" transform="translate(1225.749 1024.054)" fill="#ffebe9"/>
    <g id="Group_11939" data-name="Group 11939" transform="translate(1225.749 1024.054)">
      <path id="Path_4689" data-name="Path 4689" d="M-668.713,383.946c-3.92-.6-7.652-2.15-11.342-3.578-4.65-1.8-6.083-4.7-4.548-8.262,1.467-3.4,4.234-4.114,8.89-2.288,18.048,7.079,36.963-1.722,42.348-19.7.071-.239.2-.462.26-.7,3.1-11.566,2.05-12.95-9.707-12.978q-23.809-.055-47.619-.161c-1.1,0-2.195.137-4.327.28.686,5.032,1.1,9.811,2.04,14.483,1.025,5.084-1.061,8.477-5.585,8.267a5.213,5.213,0,0,1-5.249-4.505c-1.131-5.962-1.97-11.979-3.045-18.716h-3.467q-54,0-108-.01c-7.927-.005-13.426-4.12-14.507-11.248a14.656,14.656,0,0,1,.8-7.681c2.925-6.708,5.5-13.829,9.779-19.638,17.006-23.1,25.176-48.746,24.837-77.362-.245-20.621-.114-41.249.117-61.87.179-16.041,3.836-31.422,9.879-46.247,1.667-4.09,4.361-5.461,7.876-4.148,3.3,1.233,4.38,4.279,2.673,8.457-6.713,16.434-9.448,33.52-9.191,51.238.259,17.871.007,35.748.072,53.623.06,16.507-2.292,32.59-8.054,48.114-.294.792-.466,1.629-.748,2.636h263.3a11.628,11.628,0,0,0-.378-2.134c-8.03-20.592-8.732-42.123-8.16-63.808.1-3.727,2.537-6.505,5.439-6.541,3.5-.044,5.962,2.606,6.1,6.646.388,11.356.086,22.782,1.266,34.054,2.1,20.026,9.73,38.118,21.633,54.345,5.291,7.214,9.8,14.777,12.027,23.517,2.608,10.24-3.361,18.029-13.912,18.042q-51.747.059-103.5.015h-9.586c-.337,4.5-.3,8.635-1.007,12.64-3.148,17.878-16.549,31.16-34.513,34.535-.573.108-1.064.569-1.649.689A32.3,32.3,0,0,1-668.713,383.946Zm5.673-59.292v-.1q77.046,0,154.091,0c4.941,0,5.773-.833,3.846-5.472a120.6,120.6,0,0,0-7.612-14.919c-3.549-6.011-7.674-11.683-11.23-17.691a4.925,4.925,0,0,0-4.99-2.842c-9.246.114-18.495-.014-27.742-.015q-119.039-.008-238.076,0a9.957,9.957,0,0,0-2.98.061,6.239,6.239,0,0,0-3.186,1.858c-4.449,6.628-8.9,13.27-12.994,20.116a86.949,86.949,0,0,0-6.4,13.047c-2.1,5.384-1.5,5.957,4.309,5.957Q-739.524,324.656-663.04,324.654Z" fill="#dcdfe5"/>
      <path id="Path_4690" data-name="Path 4690" d="M-658.963-.054c7.644,2.585,13.418,7.039,15.277,15.364a21.2,21.2,0,0,1,.458,3.329c.472,7.81,3.737,11.72,11.456,13.574a132.534,132.534,0,0,1,60.136,32.06,4.8,4.8,0,0,0,5.286,1.288,22.805,22.805,0,0,1,24.912,8.59c5.706,7.847,5.835,17.769.617,26.422a5.672,5.672,0,0,0-.353,4.608c10.961,22.79,13.973,46.977,12.935,71.9-.162,3.889-2.49,6.181-6.074,6.164-2.922-.013-5.325-2.467-5.419-6.046-.174-6.621.109-13.258-.19-19.871a120.6,120.6,0,0,0-11.959-47.4c-11.321,2.971-21.022.535-27.666-9.386-5.979-8.928-5.109-18.162.793-27.159-8.575-8.177-17.9-15.131-28.538-19.9a197.251,197.251,0,0,0-26.99-9.815C-646.89,40.1-653.7,32.684-654.66,19.712c-.359-4.83-3.7-8.263-8.05-8.266-4.323,0-7.7,3.458-8.056,8.258C-671.7,32.3-678.04,39.8-690.181,43.2c-6.714,1.882-13.289,4.255-19.946,6.345-1.96.616-2.566,1.8-2.708,3.836-1.181,16.9-16.947,27.714-33.1,22.675-2.1-.657-3.433-.458-4.814,1.209-4.063,4.9-8.041,9.894-12.44,14.479a8.309,8.309,0,0,1-6.082,2.4c-1.552-.188-3.531-2.511-4.006-4.246-.428-1.567.479-3.962,1.574-5.4,4.306-5.652,8.919-11.071,13.665-16.877a25.414,25.414,0,0,1-4.4-22.98A24.284,24.284,0,0,1-751.3,30.113c9.959-6.083,25.383-5.82,35.473,9.272,3.606-1.321,7.262-2.81,11.013-4,4.161-1.315,8.42-2.315,12.617-3.519,6.117-1.753,9.517-5.929,9.951-12.11.721-10.245,5.179-16,14.875-19.214a4.215,4.215,0,0,0,.913-.6Zm-93.112,51.9a13.882,13.882,0,0,0,14.063,13.909,14.025,14.025,0,0,0,13.75-14.279A14,14,0,0,0-738.2,37.76,13.865,13.865,0,0,0-752.075,51.843Zm203.632,35.931a11.84,11.84,0,0,0-11.591-11.8A11.876,11.876,0,0,0-571.9,87.509,11.881,11.881,0,0,0-560.111,99.5,11.84,11.84,0,0,0-548.443,87.774Z" fill="#dcdfe5"/>
      <path id="Path_4691" data-name="Path 4691" d="M-547.3.481A26.471,26.471,0,0,1-520.9,27.36a26.746,26.746,0,0,1-26.613,26.418,26.911,26.911,0,0,1-26.658-26.822A26.63,26.63,0,0,1-547.3.481Zm-.141,11.551a15.032,15.032,0,0,0-15.33,15A15.053,15.053,0,0,0-547.5,42.107a15.017,15.017,0,0,0,15.121-14.838A14.965,14.965,0,0,0-547.444,12.032Z" fill="#dcdfe5"/>
      <path id="Path_4692" data-name="Path 4692" d="M-503.783,76.488a70.249,70.249,0,0,1,6.1,5.2,5.506,5.506,0,0,1,.045,7.758c-2.209,2.285-5.34,2.3-8.042-.015-.85-.728-1.6-1.574-2.408-2.353s-1.619-1.522-3.178-2.984a54.079,54.079,0,0,1-4.034,4.971c-2.781,2.723-5.925,2.806-8.294.475-2.4-2.366-2.363-5.481.34-8.266,1.458-1.5,3.213-2.711,5.816-4.866a62.008,62.008,0,0,1-6.012-4.8c-2.539-2.644-2.487-5.664-.2-8a5.519,5.519,0,0,1,8.026.112c1.6,1.526,2.8,3.461,4.974,6.214A70.035,70.035,0,0,1-505.65,63.7a5.523,5.523,0,0,1,8.017-.053A5.5,5.5,0,0,1-497.7,71.4,68.717,68.717,0,0,1-503.783,76.488Z" fill="#dcdfe5"/>
      <path id="Path_4693" data-name="Path 4693" d="M-803.252,34.485c-5.314-6.212-5.911-8.406-3.185-11.26,2.7-2.821,5.293-2.152,11.375,2.929,6.844-5.1,9.136-5.641,11.68-2.753,2.5,2.836,1.822,5.193-3.38,11.116,2.7,3.358,7.855,6.578,2.724,11.659-2.527,2.5-5.074,1.6-10.991-3.44-3.3,2.738-6.4,7.547-11.446,2.923C-809.317,43.055-808.589,40.924-803.252,34.485Z" fill="#dcdfe5"/>
      <path id="Path_4694" data-name="Path 4694" d="M-663.85,195.382c-3.681,1.481-7.122,2.517-10.212,4.2-3.785,2.058-6.912,1.981-8.916-.919-1.964-2.84-1.1-6.122,2.3-8.7,9.485-7.193,24.512-7.131,33.969.14,3.413,2.623,4.219,5.821,2.194,8.7-1.995,2.833-5.2,2.856-8.944.822C-656.655,197.889-660.216,196.832-663.85,195.382Z" fill="#dcdfe5"/>
      <path id="Path_4695" data-name="Path 4695" d="M-624.324,168.1a5.842,5.842,0,0,1-5.69,5.76,5.948,5.948,0,0,1-5.793-6.079,5.667,5.667,0,0,1,5.912-5.458A5.609,5.609,0,0,1-624.324,168.1Z" fill="#dcdfe5"/>
      <path id="Path_4696" data-name="Path 4696" d="M-690.093,168.026a5.826,5.826,0,0,1-5.624,5.807,6.057,6.057,0,0,1-5.916-5.991,5.807,5.807,0,0,1,5.9-5.515A5.578,5.578,0,0,1-690.093,168.026Z" fill="#dcdfe5"/>
    </g>
    <path id="Path_4697" data-name="Path 4697" d="M-652.571,375.11l-5.842,9.009s16.718-1.927,26.733-14.073l-3.386-.376Z" transform="translate(1225.749 1024.054)" fill="#dcdfe5"/>
  </g>
</svg>
