<?xml version="1.0" encoding="UTF-8" ?>
<!DOCTYPE svg PUBLIC "-//W3C//DTD SVG 1.1//EN" "http://www.w3.org/Graphics/SVG/1.1/DTD/svg11.dtd">
<svg width="128pt" height="128pt" viewBox="0 0 1024 1024" version="1.1" xmlns="http://www.w3.org/2000/svg">
<g id="#ffffffff">
<path fill="#ffffff" opacity="1.00" d=" M 503.26 0.00 L 520.50 0.00 C 601.73 1.43 682.57 22.33 754.12 60.87 C 821.77 97.10 881.04 148.80 926.11 210.91 C 961.88 260.05 988.77 315.64 1005.11 374.19 C 1016.91 416.17 1023.08 459.68 1024.00 503.27 L 1024.00 520.47 C 1022.57 601.71 1001.68 682.55 963.14 754.11 C 926.24 823.01 873.28 883.23 809.63 928.60 C 743.89 975.66 666.84 1006.76 586.85 1018.50 C 564.96 1021.83 542.85 1023.39 520.74 1024.00 L 503.51 1024.00 C 446.77 1022.91 390.19 1012.60 336.87 993.12 C 273.31 970.03 214.42 934.15 164.75 888.25 C 110.65 838.40 67.54 776.69 39.31 708.74 C 14.48 649.30 1.24 585.13 0.00 520.73 L 0.00 503.51 C 0.90 459.55 7.15 415.67 19.13 373.35 C 39.57 300.46 76.47 232.26 126.31 175.28 C 172.27 122.53 229.23 79.44 292.44 49.46 C 358.13 18.19 430.54 1.36 503.26 0.00 M 471.11 398.87 C 454.60 404.88 442.62 421.42 442.27 439.01 C 442.21 485.34 442.27 531.66 442.24 577.99 C 442.01 585.25 442.49 592.68 445.28 599.47 C 451.21 615.34 466.99 627.31 484.08 627.65 C 494.41 627.79 504.74 627.75 515.08 627.67 C 524.07 627.64 532.84 624.32 540.03 619.02 C 550.94 610.93 557.62 597.56 557.79 584.01 C 557.85 571.57 557.80 559.13 557.81 546.69 C 542.10 546.67 526.38 546.71 510.66 546.67 C 516.65 557.83 518.35 570.69 519.25 583.15 C 519.58 586.11 517.15 589.20 514.09 589.23 C 506.06 589.45 498.03 589.21 490.00 589.33 C 487.44 589.27 484.35 589.69 482.51 587.47 C 480.74 585.79 480.65 583.22 480.67 580.96 C 480.74 534.28 480.63 487.61 480.73 440.94 C 480.46 437.53 483.54 434.43 486.95 434.72 C 495.66 434.66 504.37 434.66 513.07 434.72 C 516.84 434.44 520.13 438.30 519.19 441.98 C 518.14 451.94 517.46 462.98 510.74 471.00 C 526.43 470.86 542.12 470.98 557.82 470.94 C 557.82 462.95 557.81 454.97 557.82 446.98 C 557.81 441.99 558.00 436.96 557.00 432.04 C 554.23 417.40 543.60 404.54 529.66 399.22 C 519.98 395.04 509.26 396.55 499.04 396.27 C 489.71 396.49 479.98 395.24 471.11 398.87 M 72.66 398.28 C 77.47 404.07 78.87 411.73 79.95 418.97 C 81.24 427.26 80.81 435.66 80.87 444.01 C 80.87 490.00 80.88 535.99 80.87 581.98 C 80.83 588.65 81.13 595.34 80.27 601.97 C 79.31 610.13 77.80 618.74 72.61 625.39 C 90.90 625.39 109.19 625.32 127.48 625.43 C 123.36 620.69 121.78 614.44 120.80 608.40 C 119.76 601.66 119.21 594.84 119.37 588.02 C 119.39 557.66 119.36 527.30 119.38 496.94 C 128.84 522.78 138.37 548.60 147.85 574.44 C 158.55 574.44 169.26 574.43 179.96 574.44 C 189.48 548.58 198.99 522.72 208.50 496.86 C 208.50 524.26 208.50 551.67 208.50 579.07 C 208.43 587.10 208.84 595.16 207.71 603.14 C 206.68 610.93 205.19 619.17 200.09 625.44 C 218.52 625.33 236.95 625.34 255.39 625.43 C 252.20 621.74 250.47 617.11 249.37 612.43 C 247.51 604.45 246.79 596.21 246.93 588.03 C 246.95 537.35 246.95 486.66 246.94 435.98 C 246.78 428.96 247.32 421.94 248.56 415.03 C 249.71 409.08 251.32 402.92 255.41 398.26 C 239.24 398.29 223.06 398.07 206.89 397.99 C 192.51 437.86 178.14 477.73 163.75 517.59 C 149.45 477.73 135.13 437.86 120.84 397.99 C 104.78 398.09 88.72 398.26 72.66 398.28 M 316.44 426.65 C 300.09 429.65 286.95 445.24 287.50 461.99 C 287.53 499.98 287.43 537.98 287.55 575.98 C 287.82 593.40 302.67 609.07 320.06 610.24 C 329.01 610.56 337.99 610.28 346.95 610.39 C 356.71 610.59 365.96 605.50 372.22 598.24 C 378.62 590.67 382.84 580.97 382.75 570.96 C 382.75 535.94 382.75 500.93 382.75 465.91 C 382.94 455.64 378.64 445.63 372.00 437.93 C 365.55 430.50 355.94 425.57 345.96 425.99 C 336.13 426.28 326.21 425.35 316.44 426.65 M 858.55 448.62 C 855.27 455.98 856.18 464.19 856.06 472.02 C 856.01 480.95 855.73 490.26 859.37 498.64 C 862.99 506.73 868.96 513.65 875.85 519.16 C 885.68 526.75 898.17 529.66 908.33 536.67 C 913.42 539.99 915.89 546.10 915.99 552.02 C 916.10 558.39 916.12 564.78 916.00 571.15 C 916.14 573.78 913.70 576.05 911.11 575.89 C 905.03 575.99 898.95 575.96 892.88 575.91 C 889.75 576.19 887.35 573.00 887.93 570.04 C 888.47 561.40 888.95 552.10 893.97 544.71 C 880.71 544.81 867.44 544.72 854.18 544.75 C 854.18 552.84 854.19 560.93 854.17 569.03 C 853.56 583.92 861.81 598.85 874.67 606.35 C 879.57 609.27 885.31 610.57 891.00 610.39 C 899.00 610.34 906.99 610.43 914.99 610.36 C 928.63 610.23 941.56 601.29 946.84 588.76 C 950.69 580.72 949.60 571.63 949.75 563.01 C 949.58 554.14 950.43 545.13 948.33 536.42 C 946.04 526.36 939.90 517.32 931.66 511.17 C 922.01 503.82 910.29 500.07 899.72 494.32 C 895.37 491.99 891.66 488.10 890.55 483.18 C 889.24 477.50 889.98 471.62 890.09 465.86 C 889.86 463.05 892.14 460.29 895.06 460.48 C 901.33 460.42 907.61 460.33 913.89 460.53 C 916.95 460.68 918.70 464.17 918.12 466.95 C 917.13 475.39 917.07 484.85 911.46 491.78 C 924.75 491.57 938.04 491.75 951.33 491.69 C 951.11 480.48 951.79 469.23 950.91 458.06 C 948.21 444.87 939.12 432.49 926.25 427.77 C 920.10 425.41 913.41 426.09 906.97 426.00 C 900.96 426.08 894.94 425.80 888.95 426.18 C 875.65 427.14 863.50 436.30 858.55 448.62 M 590.22 428.19 C 595.90 435.84 596.55 445.87 597.04 455.06 C 597.26 495.35 597.01 535.66 597.17 575.96 C 597.45 589.99 607.01 603.06 620.02 608.09 C 627.28 611.20 635.31 610.23 642.98 610.38 C 650.76 610.23 658.88 611.18 666.28 608.15 C 677.34 604.04 685.70 594.02 688.56 582.66 C 689.81 577.52 689.46 572.20 689.50 566.96 C 689.50 533.97 689.50 500.99 689.50 468.01 C 689.54 460.28 689.33 452.52 690.29 444.83 C 691.16 439.02 692.17 432.87 696.00 428.18 C 680.46 428.28 664.90 428.32 649.36 428.16 C 655.02 435.41 655.29 445.15 655.78 453.95 C 655.85 492.66 655.79 531.37 655.81 570.08 C 656.08 572.53 654.82 575.58 652.05 575.81 C 646.38 576.06 640.69 575.99 635.02 575.85 C 632.18 575.67 630.46 572.70 630.81 570.06 C 630.82 537.04 630.82 504.01 630.82 470.99 C 630.90 461.30 630.37 451.55 631.97 441.95 C 632.78 437.08 633.98 432.03 637.25 428.17 C 621.58 428.32 605.90 428.27 590.22 428.19 M 725.00 428.25 C 724.97 441.26 725.06 454.28 724.96 467.30 C 733.99 460.87 745.80 460.95 756.43 460.75 C 756.44 496.48 756.43 532.22 756.44 567.96 C 756.37 575.33 756.75 582.74 755.76 590.07 C 754.91 596.66 754.20 603.72 750.02 609.16 C 765.56 609.11 781.10 609.09 796.64 609.17 C 793.24 605.11 792.17 599.80 791.22 594.74 C 790.06 588.22 790.13 581.58 790.12 574.99 C 790.13 536.91 790.12 498.83 790.13 460.75 C 797.57 460.55 805.06 461.19 812.33 462.86 C 815.81 463.64 819.07 465.18 821.95 467.29 C 821.79 454.27 821.92 441.26 821.88 428.25 C 789.59 428.25 757.29 428.25 725.00 428.25 Z" />
<path fill="#ffffff" opacity="1.00" d=" M 325.33 460.56 C 330.52 460.23 335.74 460.55 340.95 460.41 C 343.28 460.51 346.20 460.03 347.85 462.13 C 349.08 463.40 349.02 465.27 349.07 466.92 C 349.04 501.31 349.07 535.70 349.06 570.09 C 349.50 573.04 347.20 576.16 344.07 575.90 C 338.03 575.97 331.98 575.99 325.94 575.89 C 322.90 576.02 320.80 572.91 321.19 570.08 C 321.21 535.35 321.15 500.62 321.21 465.90 C 321.01 463.42 322.73 460.77 325.33 460.56 Z" />
</g>
<g id="#021e51ff">
<path fill="#021e51" opacity="1.00" d=" M 471.11 398.87 C 479.98 395.24 489.71 396.49 499.04 396.27 C 509.26 396.55 519.98 395.04 529.66 399.22 C 543.60 404.54 554.23 417.40 557.00 432.04 C 558.00 436.96 557.81 441.99 557.82 446.98 C 557.81 454.97 557.82 462.95 557.82 470.94 C 542.12 470.98 526.43 470.86 510.74 471.00 C 517.46 462.98 518.14 451.94 519.19 441.98 C 520.13 438.30 516.84 434.44 513.07 434.72 C 504.37 434.66 495.66 434.66 486.95 434.72 C 483.54 434.43 480.46 437.53 480.73 440.94 C 480.63 487.61 480.74 534.28 480.67 580.96 C 480.65 583.22 480.74 585.79 482.51 587.47 C 484.35 589.69 487.44 589.27 490.00 589.33 C 498.03 589.21 506.06 589.45 514.09 589.23 C 517.15 589.20 519.58 586.11 519.25 583.15 C 518.35 570.69 516.65 557.83 510.66 546.67 C 526.38 546.71 542.10 546.67 557.81 546.69 C 557.80 559.13 557.85 571.57 557.79 584.01 C 557.62 597.56 550.94 610.93 540.03 619.02 C 532.84 624.32 524.07 627.64 515.08 627.67 C 504.74 627.75 494.41 627.79 484.08 627.65 C 466.99 627.31 451.21 615.34 445.28 599.47 C 442.49 592.68 442.01 585.25 442.24 577.99 C 442.27 531.66 442.21 485.34 442.27 439.01 C 442.62 421.42 454.60 404.88 471.11 398.87 Z" />
<path fill="#021e51" opacity="1.00" d=" M 72.66 398.28 C 88.72 398.26 104.78 398.09 120.84 397.99 C 135.13 437.86 149.45 477.73 163.75 517.59 C 178.14 477.73 192.51 437.86 206.89 397.99 C 223.06 398.07 239.24 398.29 255.41 398.26 C 251.32 402.92 249.71 409.08 248.56 415.03 C 247.32 421.94 246.78 428.96 246.94 435.98 C 246.95 486.66 246.95 537.35 246.93 588.03 C 246.79 596.21 247.51 604.45 249.37 612.43 C 250.47 617.11 252.20 621.74 255.39 625.43 C 236.95 625.34 218.52 625.33 200.09 625.44 C 205.19 619.17 206.68 610.93 207.71 603.14 C 208.84 595.16 208.43 587.10 208.50 579.07 C 208.50 551.67 208.50 524.26 208.50 496.86 C 198.99 522.72 189.48 548.58 179.96 574.44 C 169.26 574.43 158.55 574.44 147.85 574.44 C 138.37 548.60 128.84 522.78 119.38 496.94 C 119.36 527.30 119.39 557.66 119.37 588.02 C 119.21 594.84 119.76 601.66 120.80 608.40 C 121.78 614.44 123.36 620.69 127.48 625.43 C 109.19 625.32 90.90 625.39 72.61 625.39 C 77.80 618.74 79.31 610.13 80.27 601.97 C 81.13 595.34 80.83 588.65 80.87 581.98 C 80.88 535.99 80.87 490.00 80.87 444.01 C 80.81 435.66 81.24 427.26 79.95 418.97 C 78.87 411.73 77.47 404.07 72.66 398.28 Z" />
<path fill="#021e51" opacity="1.00" d=" M 316.44 426.65 C 326.21 425.35 336.13 426.28 345.96 425.99 C 355.94 425.57 365.55 430.50 372.00 437.93 C 378.64 445.63 382.94 455.64 382.75 465.91 C 382.75 500.93 382.75 535.94 382.75 570.96 C 382.84 580.97 378.62 590.67 372.22 598.24 C 365.96 605.50 356.71 610.59 346.95 610.39 C 337.99 610.28 329.01 610.56 320.06 610.24 C 302.67 609.07 287.82 593.40 287.55 575.98 C 287.43 537.98 287.53 499.98 287.50 461.99 C 286.95 445.24 300.09 429.65 316.44 426.65 M 325.33 460.56 C 322.73 460.77 321.01 463.42 321.21 465.90 C 321.15 500.62 321.21 535.35 321.19 570.08 C 320.80 572.91 322.90 576.02 325.94 575.89 C 331.98 575.99 338.03 575.97 344.07 575.90 C 347.20 576.16 349.50 573.04 349.06 570.09 C 349.07 535.70 349.04 501.31 349.07 466.92 C 349.02 465.27 349.08 463.40 347.85 462.13 C 346.20 460.03 343.28 460.51 340.95 460.41 C 335.74 460.55 330.52 460.23 325.33 460.56 Z" />
<path fill="#021e51" opacity="1.00" d=" M 858.55 448.62 C 863.50 436.30 875.65 427.14 888.95 426.18 C 894.94 425.80 900.96 426.08 906.97 426.00 C 913.41 426.09 920.10 425.41 926.25 427.77 C 939.12 432.49 948.21 444.87 950.91 458.06 C 951.79 469.23 951.11 480.48 951.33 491.69 C 938.04 491.75 924.75 491.57 911.46 491.78 C 917.07 484.85 917.13 475.39 918.12 466.95 C 918.70 464.17 916.95 460.68 913.89 460.53 C 907.61 460.33 901.33 460.42 895.06 460.48 C 892.14 460.29 889.86 463.05 890.09 465.86 C 889.98 471.62 889.24 477.50 890.55 483.18 C 891.66 488.10 895.37 491.99 899.72 494.32 C 910.29 500.07 922.01 503.82 931.66 511.17 C 939.90 517.32 946.04 526.36 948.33 536.42 C 950.43 545.13 949.58 554.14 949.75 563.01 C 949.60 571.63 950.69 580.72 946.84 588.76 C 941.56 601.29 928.63 610.23 914.99 610.36 C 906.99 610.43 899.00 610.34 891.00 610.39 C 885.31 610.57 879.57 609.27 874.67 606.35 C 861.81 598.85 853.56 583.92 854.17 569.03 C 854.19 560.93 854.18 552.84 854.18 544.75 C 867.44 544.72 880.71 544.81 893.97 544.71 C 888.95 552.10 888.47 561.40 887.93 570.04 C 887.35 573.00 889.75 576.19 892.88 575.91 C 898.95 575.96 905.03 575.99 911.11 575.89 C 913.70 576.05 916.14 573.78 916.00 571.15 C 916.12 564.78 916.10 558.39 915.99 552.02 C 915.89 546.10 913.42 539.99 908.33 536.67 C 898.17 529.66 885.68 526.75 875.85 519.16 C 868.96 513.65 862.99 506.73 859.37 498.64 C 855.73 490.26 856.01 480.95 856.06 472.02 C 856.18 464.19 855.27 455.98 858.55 448.62 Z" />
<path fill="#021e51" opacity="1.00" d=" M 590.22 428.19 C 605.90 428.27 621.58 428.32 637.25 428.17 C 633.98 432.03 632.78 437.08 631.97 441.95 C 630.37 451.55 630.90 461.30 630.82 470.99 C 630.82 504.01 630.82 537.04 630.81 570.06 C 630.46 572.70 632.18 575.67 635.02 575.85 C 640.69 575.99 646.38 576.06 652.05 575.81 C 654.82 575.58 656.08 572.53 655.81 570.08 C 655.79 531.37 655.85 492.66 655.78 453.95 C 655.29 445.15 655.02 435.41 649.36 428.16 C 664.90 428.32 680.46 428.28 696.00 428.18 C 692.17 432.87 691.16 439.02 690.29 444.83 C 689.33 452.52 689.54 460.28 689.50 468.01 C 689.50 500.99 689.50 533.97 689.50 566.96 C 689.46 572.20 689.81 577.52 688.56 582.66 C 685.70 594.02 677.34 604.04 666.28 608.15 C 658.88 611.18 650.76 610.23 642.98 610.38 C 635.31 610.23 627.28 611.20 620.02 608.09 C 607.01 603.06 597.45 589.99 597.17 575.96 C 597.01 535.66 597.26 495.35 597.04 455.06 C 596.55 445.87 595.90 435.84 590.22 428.19 Z" />
<path fill="#021e51" opacity="1.00" d=" M 725.00 428.25 C 757.29 428.25 789.59 428.25 821.88 428.25 C 821.92 441.26 821.79 454.27 821.95 467.29 C 819.07 465.18 815.81 463.64 812.33 462.86 C 805.06 461.19 797.57 460.55 790.13 460.75 C 790.12 498.83 790.13 536.91 790.12 574.99 C 790.13 581.58 790.06 588.22 791.22 594.74 C 792.17 599.80 793.24 605.11 796.64 609.17 C 781.10 609.09 765.56 609.11 750.02 609.16 C 754.20 603.72 754.91 596.66 755.76 590.07 C 756.75 582.74 756.37 575.33 756.44 567.96 C 756.43 532.22 756.44 496.48 756.43 460.75 C 745.80 460.95 733.99 460.87 724.96 467.30 C 725.06 454.28 724.97 441.26 725.00 428.25 Z" />
</g>
</svg>
